<?xml version="1.0" encoding="UTF-8" standalone="no"?><!DOCTYPE svg PUBLIC "-//W3C//DTD SVG 1.1//EN" "http://www.w3.org/Graphics/SVG/1.1/DTD/svg11.dtd"><svg width="100%" height="100%" viewBox="0 0 600 400" version="1.1" xmlns="http://www.w3.org/2000/svg" xmlns:xlink="http://www.w3.org/1999/xlink" xml:space="preserve" xmlns:serif="http://www.serif.com/" style="fill-rule:evenodd;clip-rule:evenodd;stroke-linecap:round;stroke-linejoin:round;stroke-miterlimit:1.5;"><rect x="0" y="0" width="600" height="400" style="fill:#63696c;"/><path d="M600,0l-600,400" style="fill:none;stroke:#fff;stroke-width:1px;"/><path d="M0,0l600,400" style="fill:none;stroke:#fff;stroke-width:1px;"/><g><g><rect x="239.441" y="153.755" width="121.119" height="92.491" style="fill:#fff;"/><path d="M362.762,248.447l-125.524,0l0,-96.894l125.524,0l0,96.894Zm-121.119,-4.404l116.714,0l0,-88.086l-116.714,0l0,88.086Z" style="fill:#2a4365;fill-rule:nonzero;"/></g><g><rect x="248.249" y="162.563" width="103.501" height="74.873" style="fill:#2a4365;"/><path d="M353.953,239.639l-107.906,0l0,-79.278l107.906,0l0,79.278Zm-103.502,-4.404l99.098,0l0,-70.47l-99.098,0l0,70.47Z" style="fill:#fff;fill-rule:nonzero;"/></g><circle cx="270.271" cy="181.434" r="10.062" style="fill:#fec136;"/><path d="M349.549,215.66l-2.203,-2.447l-26.425,-24.224l-23.123,25.325l20.92,20.921l30.831,0l0,-19.575Z" style="fill:#067531;fill-rule:nonzero;"/><path d="M250.451,235.235l68.267,0l-8.846,-8.847l-24.149,-24.148l-35.272,30.792l0,2.203Z" style="fill:#00ac42;fill-rule:nonzero;"/></g></svg>