<?xml version="1.0" encoding="UTF-8" standalone="no"?><!DOCTYPE svg PUBLIC "-//W3C//DTD SVG 1.1//EN" "http://www.w3.org/Graphics/SVG/1.1/DTD/svg11.dtd"><svg width="100%" height="100%" viewBox="0 0 60 60" version="1.1" xmlns="http://www.w3.org/2000/svg" xmlns:xlink="http://www.w3.org/1999/xlink" xml:space="preserve" xmlns:serif="http://www.serif.com/" style="fill-rule:evenodd;clip-rule:evenodd;stroke-linejoin:round;stroke-miterlimit:2;"><g><g><g><rect x="1.053" y="7.895" width="57.895" height="44.211" style="fill:#fff;"/><path d="M60,53.158l-60,0l0,-46.316l60,0l0,46.316Zm-57.895,-2.105l55.79,0l0,-42.106l-55.79,0l0,42.106Z" style="fill:#2a4365;fill-rule:nonzero;"/></g><g><rect x="5.263" y="12.105" width="49.474" height="35.789" style="fill:#2a4365;"/><path d="M55.789,48.947l-51.578,0l0,-37.894l51.578,0l0,37.894Zm-49.473,-2.105l47.368,0l0,-33.684l-47.368,0l0,33.684Z" style="fill:#fff;fill-rule:nonzero;"/></g><circle cx="15.789" cy="21.125" r="4.809" style="fill:#fec136;"/><path d="M53.684,37.485l-1.052,-1.169l-12.632,-11.579l-11.053,12.105l10,10l14.737,0l0,-9.357Z" style="fill:#067531;fill-rule:nonzero;"/><path d="M6.316,46.842l32.631,0l-4.228,-4.228l-11.543,-11.543l-16.86,14.718l0,1.053Z" style="fill:#00ac42;fill-rule:nonzero;"/></g></g></svg>